<?xml version="1.0" encoding="utf-8"?>
<!-- Generator: Adobe Illustrator 16.0.0, SVG Export Plug-In . SVG Version: 6.00 Build 0)  -->
<!DOCTYPE svg PUBLIC "-//W3C//DTD SVG 1.1//EN" "http://www.w3.org/Graphics/SVG/1.1/DTD/svg11.dtd">
<svg version="1.1" id="레이어_1" xmlns="http://www.w3.org/2000/svg" xmlns:xlink="http://www.w3.org/1999/xlink" x="0px"
	 y="0px" width="391.781px" height="430.138px" viewBox="0 0 391.781 430.138" enable-background="new 0 0 391.781 430.138"
	 xml:space="preserve">
<g>
	<polygon fill="#22A1A3" points="23.723,139.952 23.723,351.648 72.667,351.648 99.102,312.565 62.807,312.565 62.807,263.717 
		130.68,263.717 156.447,224.632 62.807,224.632 62.807,179.035 169.755,179.035 195.195,139.952 	"/>
	<polygon fill="#22A1A3" points="145.872,314.517 121.525,351.648 196.214,351.648 	"/>
	<polygon fill="#22A1A3" points="260.517,139.952 202.844,226.713 202.844,351.648 365.696,351.648 365.696,224.632 
		309.011,224.632 286.182,260.458 329.87,260.458 329.87,312.565 241.929,312.565 241.929,179.035 338.447,179.035 364.542,139.952 
			"/>
	<path fill="#CE2858" d="M351.124,53.418c7.602,0,13.79-6.182,13.79-13.749c0-7.586-6.188-13.773-13.79-13.773
		c-7.551,0-13.731,6.188-13.731,13.773C337.392,47.236,343.573,53.418,351.124,53.418"/>
	<rect x="290.661" y="125.389" fill="#CE2858" width="6.513" height="6.514"/>
	<rect x="274.371" y="125.389" fill="#CE2858" width="6.514" height="6.514"/>
	<rect x="290.661" y="112.356" fill="#CE2858" width="6.513" height="6.523"/>
	<rect x="274.371" y="112.356" fill="#CE2858" width="6.514" height="6.523"/>
	<rect x="337.389" y="57.386" fill="#CE2858" width="27.522" height="72.058"/>
	<polygon fill="#CE2858" points="346.148,108.24 336.39,94.544 336.39,94.566 286.882,25.896 72.669,351.648 109.642,351.648 
		287.046,81.134 320.924,129.641 360.919,129.327 346.148,108.291 	"/>
	<g>
		<path fill="#CE2858" d="M49.768,367.683c2.204,0.96,4.135,2.271,5.793,3.929c1.658,1.619,2.968,3.522,3.928,5.708
			c0.961,2.186,1.441,4.483,1.441,6.895c0,2.45-0.48,4.768-1.441,6.952c-0.96,2.186-2.27,4.088-3.928,5.708
			c-1.658,1.658-3.589,2.958-5.793,3.898c-2.204,0.942-4.549,1.413-7.036,1.413c-2.449,0-4.768-0.471-6.951-1.413
			c-2.186-0.94-4.106-2.24-5.765-3.898c-1.695-1.62-3.023-3.522-3.984-5.708s-1.44-4.502-1.44-6.952c0-2.41,0.479-4.709,1.44-6.895
			s2.289-4.089,3.984-5.708c1.657-1.658,3.579-2.969,5.765-3.929c2.186-0.961,4.502-1.44,6.951-1.44
			C45.219,366.242,47.564,366.722,49.768,367.683z M38.294,373.843c-1.376,0.584-2.57,1.385-3.589,2.401
			c-1.018,1.018-1.809,2.214-2.373,3.589c-0.564,1.376-0.849,2.854-0.849,4.437c0,1.62,0.283,3.118,0.849,4.493
			c0.564,1.376,1.355,2.571,2.373,3.589c1.019,1.019,2.213,1.818,3.589,2.402c1.375,0.584,2.854,0.876,4.438,0.876
			c1.545,0,3.004-0.292,4.38-0.876c1.375-0.584,2.572-1.385,3.589-2.402c1.019-1.018,1.817-2.213,2.402-3.589
			c0.584-1.375,0.876-2.873,0.876-4.493c0-1.582-0.292-3.061-0.876-4.437c-0.585-1.375-1.385-2.571-2.402-3.589
			c-1.017-1.018-2.214-1.817-3.589-2.401c-1.376-0.584-2.835-0.876-4.38-0.876C41.15,372.967,39.669,373.259,38.294,373.843z
			 M72.458,363.246v48.718h-6.726v-48.718H72.458z"/>
		<path fill="#CE2858" d="M103.939,372.459v6.612c0.148,4.56,0.573,8.401,1.271,11.528c0.696,3.128,1.63,5.651,2.798,7.573
			c1.131,1.959,2.516,3.372,4.153,4.238c1.64,0.867,3.477,1.3,5.511,1.3v5.991c-4.221,0-7.855-1.037-10.907-3.108
			c-3.053-2.071-5.086-5.236-6.104-9.495c-1.018,4.259-3.062,7.424-6.132,9.495c-3.071,2.071-6.697,3.108-10.88,3.108v-5.991h0.283
			c1.921,0,3.663-0.433,5.228-1.3c1.563-0.866,2.929-2.279,4.099-4.238c1.13-1.922,2.043-4.445,2.74-7.573
			c0.696-3.127,1.14-6.97,1.328-11.528v-6.612H84.384v-6.048h32.553v6.048H103.939z M130.331,363.246v48.718h-6.726v-48.718H130.331
			z"/>
		<path fill="#22A1A3" d="M161.867,384.439v-4.804h6.781v4.804h20.911v5.708h-48.66v-5.708H161.867z M170.684,370.339
			c1.243,1.715,2.769,3.005,4.577,3.871c1.846,0.867,3.891,1.404,6.133,1.61c2.241,0.208,4.511,0.311,6.81,0.311v6.161
			c-2.261,0-4.54-0.094-6.838-0.283c-2.299-0.188-4.483-0.583-6.557-1.187c-2.072-0.604-3.947-1.46-5.623-2.571
			c-1.677-1.111-2.986-2.571-3.928-4.38c-0.98,1.809-2.31,3.269-3.984,4.38c-1.677,1.111-3.552,1.969-5.623,2.571
			c-2.073,0.604-4.268,0.999-6.585,1.187c-2.316,0.189-4.587,0.283-6.811,0.283v-6.161c2.262,0,4.513-0.103,6.754-0.311
			c2.24-0.206,4.285-0.743,6.133-1.61c1.846-0.866,3.381-2.156,4.604-3.871c1.225-1.715,1.97-4.078,2.232-7.094h6.5
			C168.705,366.261,169.44,368.625,170.684,370.339z M142.255,411.963V399.19h39.223v-1.752h-39.223v-5.651h45.947v12.66h-39.222
			v1.864h39.222v5.651H142.255L142.255,411.963z"/>
		<path fill="#22A1A3" d="M247.432,396.083v6.104h-20.459v9.777h-6.838v-9.777h-21.363v-6.104H247.432z M200.127,370.707v-6.104
			h45.947v16.446h-39.222v4.691h39.222v6.16h-45.947v-16.785h39.223v-4.408H200.127z"/>
		<path fill="#22A1A3" d="M257.717,383.988c2.374,0,4.407-0.387,6.104-1.159c1.695-0.771,3.089-1.986,4.182-3.646
			c1.056-1.657,1.837-3.796,2.347-6.415c0.509-2.618,0.763-5.772,0.763-9.467h6.612c0,6.972,0.923,12.066,2.77,15.288
			s4.917,5.002,9.212,5.341v-2.77h7.518v-7.234h-7.518v-6.104h7.518v-4.521h6.726v47.87h-45.947v-17.859h6.727v11.699h32.496
			v-17.747h-5.766v2.771c-3.919,0-7.413-0.771-10.482-2.317c-3.071-1.544-5.247-3.729-6.527-6.556
			c-1.355,2.826-3.477,5.012-6.357,6.556c-2.884,1.546-6.436,2.317-10.653,2.317v-6.047H257.717L257.717,383.988z"/>
		<path fill="#22A1A3" d="M363.119,403.825v6.104h-48.66v-6.104H363.119z M361.311,371.78h-18.65
			c0.15,4.974,1.874,8.808,5.172,11.501c3.296,2.693,7.979,4.041,14.044,4.041v6.104c-5.841,0-10.663-0.951-14.468-2.854
			c-3.807-1.902-6.649-4.606-8.534-8.11c-1.922,3.504-4.785,6.208-8.591,8.11s-8.608,2.854-14.411,2.854v-6.104
			c6.027,0,10.683-1.348,13.959-4.041c3.278-2.693,5.03-6.527,5.256-11.501h-18.649v-6.104h44.874L361.311,371.78L361.311,371.78z"
			/>
	</g>
</g>
</svg>
